<svg width="32" height="32" viewBox="0 0 32 32" fill="none" xmlns="http://www.w3.org/2000/svg">
  <defs>
    <!-- Gradient đỏ-cam giống logo -->
    <linearGradient id="bgGradient" x1="0%" y1="0%" x2="100%" y2="100%">
      <stop offset="0%" style="stop-color:#ff6b4a"/>
      <stop offset="50%" style="stop-color:#ff8c42"/>
      <stop offset="100%" style="stop-color:#ff5722"/>
    </linearGradient>
  </defs>
  
  <!-- Hình tròn chính (đỏ-cam) -->
  <circle cx="16" cy="16" r="16" fill="url(#bgGradient)"/>
  
  <!-- Thanh ngang trên (trắng) -->
  <path d="M 4 8 Q 16 6 28 8 L 26 11 Q 16 9 6 11 Z" fill="white"/>
  
  <!-- Thanh ngang giữa (trắng) -->
  <path d="M 6 11 Q 16 9 26 11 L 24 13 Q 16 11.5 8 13 Z" fill="white"/>
  
  <!-- Các sợi phở (vàng-cam) -->
  <path d="M 10 13 Q 10 16 9 19" stroke="#ffb74d" stroke-width="1.2" fill="none"/>
  <path d="M 12 13 Q 12 16 11 19" stroke="#ffa726" stroke-width="1.2" fill="none"/>
  <path d="M 14 13 Q 14 16 13 19" stroke="#ff9800" stroke-width="1.2" fill="none"/>
  <path d="M 16 13 Q 16 16 15 19" stroke="#ffb74d" stroke-width="1.2" fill="none"/>
  <path d="M 18 13 Q 18 16 17 19" stroke="#ffa726" stroke-width="1.2" fill="none"/>
  <path d="M 20 13 Q 20 16 19 19" stroke="#ff9800" stroke-width="1.2" fill="none"/>
  
  <!-- Bát (trắng) -->
  <path d="M 8 19 Q 8 24 16 25 Q 24 24 24 19 Z" fill="white"/>
  <ellipse cx="16" cy="19" rx="8" ry="1.5" fill="white"/>
</svg>
